<svg width="70" height="66" viewBox="0 0 70 66" fill="none" xmlns="http://www.w3.org/2000/svg">
<g clip-path="url(#clip0_120_42)">
<path d="M35 0C15.75 0 0 14.85 0 33C0 51.15 15.75 66 35 66C54.25 66 70 51.15 70 33C70 14.85 54.25 0 35 0ZM35 9.9C40.95 9.9 45.5 14.19 45.5 19.8C45.5 25.41 40.95 29.7 35 29.7C29.05 29.7 24.5 25.41 24.5 19.8C24.5 14.19 29.05 9.9 35 9.9ZM35 56.76C26.25 56.76 18.55 52.4701 14 46.2C14 39.6 28 35.97 35 35.97C42 35.97 56 39.6 56 46.2C51.45 52.47 43.75 56.76 35 56.76Z" fill="#FFF7DC"/>
</g>
<defs>
<clipPath id="clip0_120_42">
<rect width="70" height="66" fill="white"/>
</clipPath>
</defs>
</svg>
